<?xml version="1.0" encoding="UTF-8" standalone="no"?>
<!DOCTYPE svg PUBLIC "-//W3C//DTD SVG 1.1//EN" "http://www.w3.org/Graphics/SVG/1.1/DTD/svg11.dtd">
<!-- Created with Vectornator (http://vectornator.io/) -->
<svg height="100%" stroke-miterlimit="10" style="fill-rule:nonzero;clip-rule:evenodd;stroke-linecap:round;stroke-linejoin:round;" version="1.1" viewBox="0 0 1024 1024" width="100%" xml:space="preserve" xmlns="http://www.w3.org/2000/svg" xmlns:vectornator="http://vectornator.io" xmlns:xlink="http://www.w3.org/1999/xlink">
<defs/>
<g id="Background" vectornator:layerName="Background">
<path d="M0 0L1024 0L1024 1024L0 1024L0 0Z" fill="#872f95" fill-rule="nonzero" opacity="1" stroke="none" vectornator:layerName="Rectangle 1"/>
</g>
<g id="Text" vectornator:layerName="Text">
<path d="M495.265 368.632L753.468 368.632C804.51 368.632 845.656 383.02 876.906 411.796C908.156 440.572 923.781 481.001 923.781 533.085C923.781 577.876 909.849 616.874 881.984 650.077C854.119 683.28 811.281 699.882 753.468 699.882L573 699.882L573 942.46L495.265 942.46L495.265 368.632ZM845.265 533.475C845.265 491.288 829.64 462.642 798.39 447.538C781.203 439.465 757.635 435.428 727.687 435.428L573 435.428L573 634.257L727.687 634.257C762.583 634.257 790.903 626.835 812.648 611.991C834.393 597.147 845.265 570.975 845.265 533.475Z" fill="#dddddd" opacity="1" stroke="none" vectornator:layerName="Headline"/>
<g fill="#ffffff" opacity="1" stroke="none" vectornator:layerName="Title">
<path d="M25.6872 54.2714L43.4997 54.2714L69.8747 131.896L96.0622 54.2714L113.687 54.2714L113.687 146.084L101.875 146.084L101.875 91.8964C101.875 90.0214 101.916 86.9172 102 82.5839C102.083 78.2506 102.125 73.6047 102.125 68.6464L75.9372 146.084L63.6247 146.084L37.2497 68.6464L37.2497 71.4589C37.2497 73.7089 37.3017 77.136 37.4059 81.7402C37.5101 86.3443 37.5622 89.7297 37.5622 91.8964L37.5622 146.084L25.6872 146.084L25.6872 54.2714Z"/>
<path d="M131.437 79.1464L142.125 79.1464L142.125 90.7089C143 88.4589 145.145 85.7193 148.562 82.4902C151.979 79.261 155.916 77.6464 160.375 77.6464C160.583 77.6464 160.937 77.6672 161.437 77.7089C161.937 77.7506 162.791 77.8339 164 77.9589L164 89.8339C163.333 89.7089 162.718 89.6256 162.156 89.5839C161.593 89.5422 160.979 89.5214 160.312 89.5214C154.645 89.5214 150.291 91.3443 147.25 94.9902C144.208 98.636 142.687 102.834 142.687 107.584L142.687 146.084L131.437 146.084L131.437 79.1464Z"/>
<path d="M174.937 54.2714L192.75 54.2714L219.125 131.896L245.312 54.2714L262.937 54.2714L262.937 146.084L251.125 146.084L251.125 91.8964C251.125 90.0214 251.166 86.9172 251.25 82.5839C251.333 78.2506 251.375 73.6047 251.375 68.6464L225.187 146.084L212.875 146.084L186.5 68.6464L186.5 71.4589C186.5 73.7089 186.552 77.136 186.656 81.7402C186.76 86.3443 186.812 89.7297 186.812 91.8964L186.812 146.084L174.937 146.084L174.937 54.2714Z"/>
<path d="M289 128.271C289 131.521 290.187 134.084 292.562 135.959C294.937 137.834 297.75 138.771 301 138.771C304.958 138.771 308.791 137.855 312.5 136.021C318.75 132.98 321.875 128.001 321.875 121.084L321.875 112.021C320.5 112.896 318.729 113.626 316.562 114.209C314.395 114.792 312.27 115.209 310.187 115.459L303.375 116.334C299.291 116.876 296.229 117.73 294.187 118.896C290.729 120.855 289 123.98 289 128.271ZM316.25 105.521C318.833 105.188 320.562 104.105 321.437 102.271C321.937 101.271 322.187 99.8339 322.187 97.9589C322.187 94.1256 320.823 91.3443 318.093 89.6152C315.364 87.886 311.458 87.0214 306.375 87.0214C300.5 87.0214 296.333 88.6047 293.875 91.7714C292.5 93.5214 291.604 96.1256 291.187 99.5839L280.687 99.5839C280.895 91.3339 283.573 85.5943 288.718 82.3652C293.864 79.136 299.833 77.5214 306.625 77.5214C314.5 77.5214 320.895 79.0214 325.812 82.0214C330.687 85.0214 333.125 89.6881 333.125 96.0214L333.125 134.584C333.125 135.751 333.364 136.688 333.843 137.396C334.323 138.105 335.333 138.459 336.875 138.459C337.375 138.459 337.937 138.428 338.562 138.365C339.187 138.303 339.854 138.209 340.562 138.084L340.562 146.396C338.812 146.896 337.479 147.209 336.562 147.334C335.645 147.459 334.395 147.521 332.812 147.521C328.937 147.521 326.125 146.146 324.375 143.396C323.458 141.938 322.812 139.876 322.437 137.209C320.145 140.209 316.854 142.813 312.562 145.021C308.27 147.23 303.541 148.334 298.375 148.334C292.166 148.334 287.093 146.448 283.156 142.678C279.218 138.907 277.25 134.188 277.25 128.521C277.25 122.313 279.187 117.501 283.062 114.084C286.937 110.667 292.02 108.563 298.312 107.771L316.25 105.521Z"/>
<path d="M353.812 60.4589L365.187 60.4589L365.187 79.1464L375.875 79.1464L375.875 88.3339L365.187 88.3339L365.187 132.021C365.187 134.355 365.979 135.917 367.562 136.709C368.437 137.167 369.895 137.396 371.937 137.396C372.479 137.396 373.062 137.386 373.687 137.365C374.312 137.344 375.041 137.292 375.875 137.209L375.875 146.084C374.583 146.459 373.239 146.73 371.843 146.896C370.448 147.063 368.937 147.146 367.312 147.146C362.062 147.146 358.5 145.803 356.625 143.115C354.75 140.428 353.812 136.938 353.812 132.646L353.812 88.3339L344.75 88.3339L344.75 79.1464L353.812 79.1464L353.812 60.4589Z"/>
<path d="M428.625 80.0214L441.687 80.0214L441.687 93.6464L428.625 93.6464L428.625 80.0214ZM428.625 132.459L441.687 132.459L441.687 146.084L428.625 146.084L428.625 132.459Z"/>
<path d="M464.187 80.0214L477.25 80.0214L477.25 93.6464L464.187 93.6464L464.187 80.0214ZM464.187 132.459L477.25 132.459L477.25 146.084L464.187 146.084L464.187 132.459Z"/>
<path d="M27.1872 208.271L68.4997 208.271C76.6663 208.271 83.2497 210.573 88.2497 215.178C93.2497 219.782 95.7497 226.251 95.7497 234.584C95.7497 241.751 93.5205 247.99 89.0622 253.303C84.6038 258.615 77.7497 261.271 68.4997 261.271L39.6247 261.271L39.6247 300.084L27.1872 300.084L27.1872 208.271ZM83.1872 234.646C83.1872 227.896 80.6872 223.313 75.6872 220.896C72.9372 219.605 69.1663 218.959 64.3747 218.959L39.6247 218.959L39.6247 250.771L64.3747 250.771C69.958 250.771 74.4892 249.584 77.9684 247.209C81.4476 244.834 83.1872 240.646 83.1872 234.646Z"/>
<path d="M110.187 208.271L121.437 208.271L121.437 300.084L110.187 300.084L110.187 208.271Z"/>
<path d="M146.937 282.271C146.937 285.521 148.125 288.084 150.5 289.959C152.875 291.834 155.687 292.771 158.937 292.771C162.895 292.771 166.729 291.855 170.437 290.021C176.687 286.98 179.812 282.001 179.812 275.084L179.812 266.021C178.437 266.896 176.666 267.626 174.5 268.209C172.333 268.792 170.208 269.209 168.125 269.459L161.312 270.334C157.229 270.876 154.166 271.73 152.125 272.896C148.666 274.855 146.937 277.98 146.937 282.271ZM174.187 259.521C176.77 259.188 178.5 258.105 179.375 256.271C179.875 255.271 180.125 253.834 180.125 251.959C180.125 248.126 178.76 245.344 176.031 243.615C173.302 241.886 169.395 241.021 164.312 241.021C158.437 241.021 154.27 242.605 151.812 245.771C150.437 247.521 149.541 250.126 149.125 253.584L138.625 253.584C138.833 245.334 141.51 239.594 146.656 236.365C151.802 233.136 157.77 231.521 164.562 231.521C172.437 231.521 178.833 233.021 183.75 236.021C188.625 239.021 191.062 243.688 191.062 250.021L191.062 288.584C191.062 289.751 191.302 290.688 191.781 291.396C192.26 292.105 193.27 292.459 194.812 292.459C195.312 292.459 195.875 292.428 196.5 292.365C197.125 292.303 197.791 292.209 198.5 292.084L198.5 300.396C196.75 300.896 195.416 301.209 194.5 301.334C193.583 301.459 192.333 301.521 190.75 301.521C186.875 301.521 184.062 300.146 182.312 297.396C181.395 295.938 180.75 293.876 180.375 291.209C178.083 294.209 174.791 296.813 170.5 299.021C166.208 301.23 161.479 302.334 156.312 302.334C150.104 302.334 145.031 300.448 141.093 296.678C137.156 292.907 135.187 288.188 135.187 282.521C135.187 276.313 137.125 271.501 141 268.084C144.875 264.667 149.958 262.563 156.25 261.771L174.187 259.521Z"/>
<path d="M251.312 233.146L263.75 233.146C262.166 237.438 258.645 247.23 253.187 262.521C249.104 274.021 245.687 283.396 242.937 290.646C236.437 307.73 231.854 318.146 229.187 321.896C226.52 325.646 221.937 327.521 215.437 327.521C213.854 327.521 212.635 327.459 211.781 327.334C210.927 327.209 209.875 326.98 208.625 326.646L208.625 316.396C210.583 316.938 212 317.271 212.875 317.396C213.75 317.521 214.52 317.584 215.187 317.584C217.27 317.584 218.802 317.24 219.781 316.553C220.76 315.865 221.583 315.021 222.25 314.021C222.458 313.688 223.208 311.98 224.5 308.896C225.791 305.813 226.729 303.521 227.312 302.021L202.562 233.146L215.312 233.146L233.25 287.646L251.312 233.146Z"/>
<path d="M297.125 231.959C302.375 231.959 306.958 233.251 310.875 235.834C313 237.292 315.166 239.417 317.375 242.209L317.375 233.771L327.75 233.771L327.75 294.646C327.75 303.146 326.5 309.855 324 314.771C319.333 323.855 310.52 328.396 297.562 328.396C290.354 328.396 284.291 326.782 279.375 323.553C274.458 320.323 271.708 315.271 271.125 308.396L282.562 308.396C283.104 311.396 284.187 313.709 285.812 315.334C288.354 317.834 292.354 319.084 297.812 319.084C306.437 319.084 312.083 316.042 314.75 309.959C316.333 306.376 317.062 299.98 316.937 290.771C314.687 294.188 311.979 296.73 308.812 298.396C305.645 300.063 301.458 300.896 296.25 300.896C289 300.896 282.656 298.323 277.218 293.178C271.781 288.032 269.062 279.521 269.062 267.646C269.062 256.438 271.802 247.688 277.281 241.396C282.76 235.105 289.375 231.959 297.125 231.959ZM317.375 266.334C317.375 258.042 315.666 251.896 312.25 247.896C308.833 243.896 304.479 241.896 299.187 241.896C291.27 241.896 285.854 245.605 282.937 253.021C281.395 256.98 280.625 262.167 280.625 268.584C280.625 276.126 282.156 281.865 285.218 285.803C288.281 289.74 292.395 291.709 297.562 291.709C305.645 291.709 311.333 288.063 314.625 280.771C316.458 276.646 317.375 271.834 317.375 266.334Z"/>
<path d="M345 233.146L355.687 233.146L355.687 244.709C356.562 242.459 358.708 239.719 362.125 236.49C365.541 233.261 369.479 231.646 373.937 231.646C374.145 231.646 374.5 231.667 375 231.709C375.5 231.751 376.354 231.834 377.562 231.959L377.562 243.834C376.895 243.709 376.281 243.626 375.718 243.584C375.156 243.542 374.541 243.521 373.875 243.521C368.208 243.521 363.854 245.344 360.812 248.99C357.77 252.636 356.25 256.834 356.25 261.584L356.25 300.084L345 300.084L345 233.146Z"/>
<path d="M413.875 292.834C421.333 292.834 426.448 290.011 429.218 284.365C431.989 278.719 433.375 272.438 433.375 265.521C433.375 259.271 432.375 254.188 430.375 250.271C427.208 244.105 421.75 241.021 414 241.021C407.125 241.021 402.125 243.646 399 248.896C395.875 254.146 394.312 260.48 394.312 267.896C394.312 275.021 395.875 280.959 399 285.709C402.125 290.459 407.083 292.834 413.875 292.834ZM414.312 231.209C422.937 231.209 430.229 234.084 436.187 239.834C442.145 245.584 445.125 254.042 445.125 265.209C445.125 276.001 442.5 284.917 437.25 291.959C432 299.001 423.854 302.521 412.812 302.521C403.604 302.521 396.291 299.407 390.875 293.178C385.458 286.948 382.75 278.584 382.75 268.084C382.75 256.834 385.604 247.876 391.312 241.209C397.02 234.542 404.687 231.209 414.312 231.209Z"/>
<path d="M469.75 233.146L469.75 277.584C469.75 281.001 470.291 283.792 471.375 285.959C473.375 289.959 477.104 291.959 482.562 291.959C490.395 291.959 495.729 288.459 498.562 281.459C500.104 277.709 500.875 272.563 500.875 266.021L500.875 233.146L512.125 233.146L512.125 300.084L501.5 300.084L501.625 290.209C500.166 292.751 498.354 294.896 496.187 296.646C491.895 300.146 486.687 301.896 480.562 301.896C471.02 301.896 464.52 298.709 461.062 292.334C459.187 288.917 458.25 284.355 458.25 278.646L458.25 233.146L469.75 233.146Z"/>
<path d="M529.687 233.146L540.375 233.146L540.375 242.646C543.541 238.73 546.895 235.917 550.437 234.209C553.979 232.501 557.916 231.646 562.25 231.646C571.75 231.646 578.166 234.959 581.5 241.584C583.333 245.209 584.25 250.396 584.25 257.146L584.25 300.084L572.812 300.084L572.812 257.896C572.812 253.813 572.208 250.521 571 248.021C569 243.855 565.375 241.771 560.125 241.771C557.458 241.771 555.27 242.042 553.562 242.584C550.479 243.501 547.77 245.334 545.437 248.084C543.562 250.292 542.343 252.573 541.781 254.928C541.218 257.282 540.937 260.646 540.937 265.021L540.937 300.084L529.687 300.084L529.687 233.146Z"/>
<path d="M608 267.396C608 274.563 609.52 280.563 612.562 285.396C615.604 290.23 620.479 292.646 627.187 292.646C632.395 292.646 636.677 290.407 640.031 285.928C643.385 281.448 645.062 275.021 645.062 266.646C645.062 258.188 643.333 251.928 639.875 247.865C636.416 243.803 632.145 241.771 627.062 241.771C621.395 241.771 616.802 243.938 613.281 248.271C609.76 252.605 608 258.98 608 267.396ZM624.937 231.959C630.062 231.959 634.354 233.042 637.812 235.209C639.812 236.459 642.083 238.646 644.625 241.771L644.625 207.959L655.437 207.959L655.437 300.084L645.312 300.084L645.312 290.771C642.687 294.896 639.583 297.876 636 299.709C632.416 301.542 628.312 302.459 623.687 302.459C616.229 302.459 609.77 299.323 604.312 293.053C598.854 286.782 596.125 278.438 596.125 268.021C596.125 258.271 598.614 249.823 603.593 242.678C608.573 235.532 615.687 231.959 624.937 231.959Z"/>
</g>
</g>
</svg>
